<svg xmlns="http://www.w3.org/2000/svg" viewBox="0 0 512 512">
  <!-- Fondo cream con bordes redondeados (PWA app icon) -->
  <rect width="512" height="512" rx="100" fill="#EAE5DF"/>
  <!-- Logo Restrepo Acosta centrado -->
  <g transform="translate(56, 156) scale(3.33)">
    <rect x="4" y="58" width="14" height="22" fill="#2D4B52" opacity="0.55"/>
    <rect x="7" y="63" width="3" height="3" fill="rgba(255,255,255,0.35)"/>
    <rect x="12" y="63" width="3" height="3" fill="rgba(255,255,255,0.35)"/>
    <rect x="7" y="70" width="3" height="3" fill="rgba(255,255,255,0.35)"/>
    <rect x="12" y="70" width="3" height="3" fill="rgba(255,255,255,0.35)"/>
    <rect x="20" y="42" width="20" height="38" fill="#2D4B52" opacity="0.78"/>
    <rect x="23" y="47" width="5" height="5" fill="rgba(255,255,255,0.35)"/>
    <rect x="31" y="47" width="5" height="5" fill="rgba(255,255,255,0.35)"/>
    <rect x="23" y="56" width="5" height="5" fill="rgba(255,255,255,0.35)"/>
    <rect x="31" y="56" width="5" height="5" fill="rgba(255,255,255,0.35)"/>
    <rect x="23" y="65" width="5" height="5" fill="rgba(255,255,255,0.35)"/>
    <rect x="31" y="65" width="5" height="5" fill="rgba(255,255,255,0.35)"/>
    <rect x="43" y="6" width="34" height="74" fill="#2D4B52"/>
    <rect x="59" y="0" width="2.5" height="8" fill="#2D4B52"/>
    <rect x="56" y="6" width="8" height="3" fill="#2D4B52"/>
    <rect x="47" y="13" width="6" height="6" fill="rgba(255,255,255,0.38)"/>
    <rect x="67" y="13" width="6" height="6" fill="rgba(255,255,255,0.38)"/>
    <rect x="47" y="24" width="6" height="6" fill="rgba(255,255,255,0.38)"/>
    <rect x="67" y="24" width="6" height="6" fill="rgba(255,255,255,0.38)"/>
    <rect x="47" y="35" width="6" height="6" fill="rgba(255,255,255,0.38)"/>
    <rect x="67" y="35" width="6" height="6" fill="rgba(255,255,255,0.38)"/>
    <rect x="47" y="46" width="6" height="6" fill="rgba(255,255,255,0.38)"/>
    <rect x="67" y="46" width="6" height="6" fill="rgba(255,255,255,0.38)"/>
    <rect x="47" y="57" width="6" height="6" fill="rgba(255,255,255,0.38)"/>
    <rect x="67" y="57" width="6" height="6" fill="rgba(255,255,255,0.38)"/>
    <rect x="80" y="38" width="20" height="42" fill="#2D4B52" opacity="0.78"/>
    <rect x="83" y="43" width="5" height="5" fill="rgba(255,255,255,0.35)"/>
    <rect x="91" y="43" width="5" height="5" fill="rgba(255,255,255,0.35)"/>
    <rect x="83" y="52" width="5" height="5" fill="rgba(255,255,255,0.35)"/>
    <rect x="91" y="52" width="5" height="5" fill="rgba(255,255,255,0.35)"/>
    <rect x="83" y="61" width="5" height="5" fill="rgba(255,255,255,0.35)"/>
    <rect x="91" y="61" width="5" height="5" fill="rgba(255,255,255,0.35)"/>
    <rect x="83" y="70" width="5" height="5" fill="rgba(255,255,255,0.35)"/>
    <rect x="91" y="70" width="5" height="5" fill="rgba(255,255,255,0.35)"/>
    <rect x="103" y="54" width="14" height="26" fill="#2D4B52" opacity="0.55"/>
    <rect x="106" y="59" width="3" height="3" fill="rgba(255,255,255,0.35)"/>
    <rect x="111" y="59" width="3" height="3" fill="rgba(255,255,255,0.35)"/>
    <rect x="106" y="66" width="3" height="3" fill="rgba(255,255,255,0.35)"/>
    <rect x="111" y="66" width="3" height="3" fill="rgba(255,255,255,0.35)"/>
    <rect x="0" y="80" width="120" height="1.5" fill="#2D4B52" opacity="0.3"/>
    <path d="M 8 85 Q 60 72 112 85" stroke="#C8922A" stroke-width="3" fill="none" stroke-linecap="round"/>
  </g>
  <!-- Texto "RA" en la parte inferior -->
  <text x="256" y="450" font-family="Georgia, serif" font-size="48" font-weight="bold"
        text-anchor="middle" fill="#2D4B52" letter-spacing="6">RA</text>
</svg>
